# xmcd CD database file
#
# Track frame offsets:
#	150
#	14937
#	32020
#	47075
#	71452
#	98410
#	143262
#	174882
#	209080
#	244260
#
# Disc length: 3473 seconds
#
# Revision: 0
# Processed by: cddbd v1.5PL3 Copyright (c) Steve Scherf et al.
# Submitted via: CDex 1.50Beta7
#
DISCID=830d8f0a
DTITLE=DJ Sammy - Sunlight
DYEAR=2003
DGENRE=Trance
TTITLE0=Sunlight (Radio edit)
TTITLE1=Sunlight (Milky edit)
TTITLE2=Sunlight (Bossa nova vibes)
TTITLE3=Sunlight (Original)
TTITLE4=Sunlight (Milky remix)
TTITLE5=Sunlight (Martin everer remix)
TTITLE6=Sunlight (Driftwood remix)
TTITLE7=Sunlight (Minimalistix remix)
TTITLE8=Sunlight (DJ Shog remix)
TTITLE9=The Boys of Summer (Soulside mix)
EXTD=YEAR: 2003
EXTT0=
EXTT1=
EXTT2=
EXTT3=
EXTT4=
EXTT5=
EXTT6=
EXTT7=
EXTT8=
EXTT9=
PLAYORDER=
